<svg x="0" y="0" width="2160" height="1080" viewBox="0 0 2160 1080" xmlns="http://www.w3.org/2000/svg" xmlns:xlink="http://www.w3.org/1999/xlink" xmlns:fi="http://pattern.flaticon.com/"><rect x="0px" y="0px" width="100%" height="100%" opacity="1" fill="#ffffff"/><defs><g transform="matrix(2.5 0 0 2.5 241 150)" id="L1_0"><path d="m16 17c-.5523 0-1 .4477-1 1s.4477 1 1 1 1-.4477 1-1-.4477-1-1-1zm-3 1c0-1.6569 1.3431-3 3-3s3 1.3431 3 3-1.3431 3-3 3-3-1.3431-3-3z" fill="#1cb0f6"/><path d="m8 5c-.55228 0-1 .44772-1 1s.44772 1 1 1 1-.44772 1-1-.44772-1-1-1zm-3 1c0-1.65685 1.34315-3 3-3s3 1.34315 3 3-1.34315 3-3 3-3-1.34315-3-3z" fill="#1cb0f6"/><path d="m16.4472 3.10558c.494.24699.6942.84766.4472 1.34164l-7.99997 15.99998c-.24699.494-.84766.6942-1.34164.4472s-.6942-.8476-.44721-1.3416l8.00002-16.00001c.247-.49398.8476-.6942 1.3416-.44721z" fill="#2b70c9"/></g><g transform="matrix(2.5 0 0 2.5 173 317)" id="L1_1"><path d="m10.5 6.5c0-.82843.6716-1.5 1.5-1.5h.01c.8284 0 1.5.67157 1.5 1.5v.01c0 .82843-.6716 1.5-1.5 1.5h-.01c-.8284 0-1.5-.67157-1.5-1.5z" fill="#1cb0f6"/><path d="m10.5 17.5c0-.8284.6716-1.5 1.5-1.5h.01c.8284 0 1.5.6716 1.5 1.5v.01c0 .8284-.6716 1.5-1.5 1.5h-.01c-.8284 0-1.5-.6716-1.5-1.5z" fill="#1cb0f6"/><path d="m5.00005 12c0-.5523.44771-1 1-1h11.99995c.5523 0 1 .4477 1 1s-.4477 1-1 1h-11.99995c-.55229 0-1-.4477-1-1z" fill="#2b70c9"/></g><path d="m7.02616 4.77277c.10561-.45259.5091-.77277.97384-.77277h13c.5523 0 1 .44772 1 1s-.4477 1-1 1h-11.8097c-.23238 0-.43412.16009-.48692.38638l-3.22953 13.84082c-.10297.4413-.48981.7582-.94274.7723s-.85872-.2781-.98893-.7122l-1.5-5c-.1587-.5289.14148-1.0864.67048-1.2451.52899-.1587 1.08647.1415 1.24517.6705.115.3833.66356.3662.75451-.0235z" transform="matrix(2.5 0 0 2.5 4 145)" fill="#1cb0f6" id="L1_2"/><g transform="matrix(0.1171875 0 0 0.1171875 104 49)" id="L1_3"><g><path d="m371.22 7.5h-230.44c-17.79 0-32.22 14.43-32.22 32.23v432.54.43h.011c.231 17.601 14.563 31.8 32.209 31.8h230.44c17.646 0 31.978-14.199 32.209-31.8h.001c.01 0 .01-.01.01-.01v-.42-432.54c0-17.8-14.43-32.23-32.22-32.23z" fill="#60b7ff"/><path d="m371.22 7.5h-28.649c17.79 0 32.22 14.43 32.22 32.23v392.172 40.368.42s0 .01-.01.01h-.001c-.231 17.601-14.563 31.8-32.209 31.8h28.649c17.646 0 31.978-14.199 32.209-31.8h.001c.01 0 .01-.01.01-.01v-.42-432.54c0-17.8-14.43-32.23-32.22-32.23z" fill="#26a6fe"/><path d="m374.78 43.2-.01 373.578h-237.55v-373.568c0-4.41 3.58-7.99 7.99-7.99h31.26c2.51 7.81 9.82 13.47 18.47 13.47h122.12c8.65 0 15.96-5.66 18.47-13.47h31.26c4.41 0 7.99 3.57 7.99 7.98z" fill="#e2f1fe"/><path d="m366.79 35.22h-27.454c4.41 0 7.99 3.57 7.99 7.98l-.01 373.578h27.454l.01-373.578c0-4.41-3.58-7.98-7.99-7.98z" fill="#c4e3ff"/><path d="m137.22 106.23h237.56v130.94h-237.56z" fill="#c4e3ff"/><path d="m347.326 106.23h27.454v130.94h-27.454z" fill="#8ac9fe"/><g fill="#678d98"><path d="m196.61 322.292h-59.39v-54.805h59.39c-.003 18.784-.003 37.248 0 54.805z"/><path d="m196.61 322.292c-.003 19.682-.003 38.223-.003 54.805h-59.387v-54.805z"/><path d="m137.22 377.097h59.388v54.805h-59.388z"/><path d="m256 322.292h-59.39v-54.805h59.39c-.003 18.784-.003 37.248 0 54.805z"/><path d="m256 322.292c-.003 19.682-.003 38.223-.003 54.805h-59.387v-54.805z"/><path d="m196.61 377.097h59.388v54.805h-59.388z"/><path d="m315.39 322.292h-59.39v-54.805h59.39c-.002 18.784-.002 37.248 0 54.805z"/><path d="m315.39 322.292c-.003 19.682-.003 38.223-.003 54.805h-59.387v-54.805z"/><path d="m256 377.097h59.388v54.805h-59.388z"/></g><path d="m374.78 322.292h-59.39v-54.805h59.39c-.002 18.784-.002 37.248 0 54.805z" fill="#ffc344"/><path d="m374.78 267.486h-27.454c-.002 18.785-.002 37.249 0 54.805h27.454c-.002-17.556-.002-36.02 0-54.805z" fill="#f6ab31"/><path d="m315.39 322.292v54.805 54.805h59.388v-54.805c0-16.582 0-35.123.002-54.805z" fill="#fd6930"/><path d="m347.326 322.292c-.002 19.682-.002 38.223-.002 54.805v44.261c0 5.824-4.721 10.545-10.545 10.545h37.998s0-89.929.002-109.611z" fill="#fd5426"/><circle cx="256" cy="468" r="15" fill="#e2f1fe"/></g><g><path d="m278.325 134.539h-12.68c-4.143 0-7.5 3.358-7.5 7.5s3.357 7.5 7.5 7.5h5.18v51.822c0 4.142 3.357 7.5 7.5 7.5s7.5-3.358 7.5-7.5v-59.322c0-4.142-3.357-7.5-7.5-7.5z"/><path d="m347.338 185.417v-27.434c0-13.594-11.06-24.654-24.654-24.654s-24.654 11.06-24.654 24.654v27.434c0 13.594 11.06 24.654 24.654 24.654s24.654-11.06 24.654-24.654zm-34.309 0v-27.434c0-5.323 4.331-9.654 9.654-9.654s9.654 4.331 9.654 9.654v27.434c0 5.323-4.331 9.654-9.654 9.654s-9.654-4.331-9.654-9.654z"/><path d="m244.226 195.071h-22.921c-4.143 0-7.5 3.358-7.5 7.5s3.357 7.5 7.5 7.5h22.921c4.143 0 7.5-3.358 7.5-7.5s-3.358-7.5-7.5-7.5z"/><path d="m410.94 39.73c0-21.907-17.818-39.73-39.72-39.73h-230.44c-21.902 0-39.721 17.823-39.721 39.73v48.34c0 4.142 3.357 7.5 7.5 7.5s7.5-3.358 7.5-7.5v-48.34c0-13.636 11.09-24.73 24.721-24.73h230.44c13.631 0 24.721 11.094 24.721 24.73l-.001 432.54c0 13.636-11.089 24.73-24.72 24.73h-230.44c-13.631 0-24.72-11.094-24.72-24.73l-.001-348.72c0-4.142-3.357-7.5-7.5-7.5s-7.5 3.358-7.5 7.5v349.15c0 .16.014.316.024.473.484 21.491 18.099 38.827 39.697 38.827h230.44c21.853 0 39.637-17.745 39.716-39.586 0-.048.005-.097.005-.144v-432.54z"/><path d="m366.79 27.72h-31.26c-3.258 0-6.143 2.103-7.14 5.205-1.59 4.943-6.144 8.265-11.331 8.265h-122.119c-5.188 0-9.741-3.322-11.331-8.265-.997-3.102-3.882-5.205-7.14-5.205h-31.26c-8.541 0-15.49 6.949-15.49 15.49v388.69.002c0 4.142 3.357 7.5 7.5 7.5h237.558c4.143 0 7.5-3.358 7.5-7.5l.003-388.702c0-8.535-6.949-15.48-15.49-15.48zm-60.065 201.95h-162.005v-115.94h222.559l-.003 115.94h-25.211c-4.143 0-7.5 3.358-7.5 7.5s3.357 7.5 7.5 7.5h25.21v15.316h-222.555v-15.316h162.005c4.143 0 7.5-3.358 7.5-7.5s-3.358-7.5-7.5-7.5zm1.163 194.73h-44.388v-39.803h44.388zm-59.391 0h-44.387v-39.803h44.387zm-59.39 0h-44.387v-39.803h44.388v39.803zm-44.387-94.608h44.391l-.003 39.806h-44.388zm0-54.806h44.39c-.002 13.553-.002 26.896 0 39.805h-44.39zm222.553 39.806h-44.383v-39.805h44.384zm-163.163 15h44.39l-.003 39.806h-44.387zm59.39 0h44.39l-.002 39.806h-44.388zm44.389-15h-44.389v-39.805h44.389c-.001 13.552-.001 26.895 0 39.805zm-59.39 0h-44.389v-39.805h44.389c-.002 13.553-.002 26.895 0 39.805zm118.771 109.608h-44.38v-94.608h44.383zm-222.06-381.68h26.416c4.725 8.234 13.519 13.47 23.314 13.47h122.12c9.796 0 18.59-5.236 23.314-13.47h26.416c.271 0 .49.215.49.48l-.002 55.53h-222.558v-55.52c0-.27.219-.49.49-.49z"/><path d="m233.355 468.201c0 12.486 10.158 22.645 22.645 22.645s22.645-10.158 22.645-22.645-10.159-22.644-22.645-22.644-22.645 10.158-22.645 22.644zm30.29 0c0 4.215-3.43 7.645-7.645 7.645s-7.645-3.429-7.645-7.645 3.43-7.645 7.645-7.645 7.645 3.43 7.645 7.645z"/></g></g><g transform="matrix(0.11718154698610306 0 0 0.11718154698610306 94 294)" id="L1_4"><g><path d="m484.946 8.446c-3.09.48-12.04 10.42-14.42 12.64l-458.73 458.73c-9.12 9.12-2.66 24.71 10.23 24.71h468.03c7.99 0 14.47-6.48 14.47-14.47v-468.03c0-10.69-10.72-16.96-19.58-13.58zm-58.24 412.22c0 3.4-2.76 6.16-6.16 6.16h-199.3c-5.49 0-8.24-6.64-4.36-10.52l199.3-199.3c3.88-3.88 10.52-1.13 10.52 4.36z" fill="#ffc344"/><path d="m426.706 195.786v25.58c0-5.49-6.64-8.24-10.52-4.36l-199.3 199.3c-3.88 3.88-1.13 10.52 4.36 10.52h-25.26c-5.49 0-8.24-6.64-4.35-10.52l224.55-224.88c3.88-3.88 10.52-1.13 10.52 4.36z" fill="#f6ab31"/><path d="m284.446 33.546c-1.56.27-10.13 9.25-11.59 10.67l-231.88 231.88c-9.05 9.05-2.64 24.52 10.16 24.52h239.89c7.94 0 14.37-6.43 14.37-14.36v-239.9c0-11.24-11.92-17.55-20.95-12.81zm-53.67 217.28c-13.41 0-24.27-10.86-24.27-24.27 0-13.4 10.86-24.26 24.27-24.26 13.4 0 24.27 10.86 24.27 24.26 0 13.41-10.87 24.27-24.27 24.27z" fill="#fd6930"/><path d="m484.95 8.45c-3.513.907-10.893 9.275-14.424 12.637h.003c4.97.535 8.744 4.731 8.744 9.729v459.236c0 7.994-6.48 14.474-14.474 14.474h25.253c7.994 0 14.474-6.48 14.474-14.474v-468.023c0-10.692-10.716-16.948-19.576-13.579z" fill="#f6ab31"/><path d="m284.447 33.556-.001-.01c-.397-.006-4.005 2.819-5.299 4.378l-6.292 6.292c5.421 2.14 8.983 7.375 8.983 13.203v228.833c0 7.933-6.431 14.365-14.365 14.365h23.555c7.933 0 14.365-6.431 14.365-14.365v-239.895c.001-11.23-11.912-17.538-20.946-12.801z" fill="#fd5426"/></g><g><path d="m498.463 1.729c-8.367-3.467-17.544-1.642-23.95 4.763l-161.619 161.619v-121.754c0-9.012-5.172-16.752-13.497-20.2-8.328-3.452-17.458-1.631-23.829 4.739l-239.893 239.895c-6.373 6.372-8.188 15.503-4.74 23.828s11.189 13.497 20.2 13.497h147.087l14.855 14.854c2.345 2.164 6.713 3.402 10.606.001 2.929-2.93 2.929-7.678 0-10.606l-4.249-4.249h71.594c12.057 0 21.865-9.809 21.865-21.864v-67.96c2.97 3.552 7.715 6.85 13.037 2.432 2.93-2.929 2.93-7.678.001-10.606l-13.038-13.039v-7.752l36.641-36.641 16.914 16.914c2.346 2.163 6.712 3.401 10.607 0 2.929-2.93 2.929-7.678 0-10.607l-16.914-16.914 40.517-40.517 16.915 16.915c2.346 2.163 6.712 3.401 10.606-.001 2.929-2.929 2.929-7.678-.001-10.606l-16.915-16.914 40.517-40.518 16.916 16.915c2.346 2.163 6.712 3.401 10.606-.001 2.929-2.929 2.929-7.678-.001-10.606l-16.911-16.917 22.729-22.729c3.062-3.059 6.594-1.929 7.603-1.513 1.01.419 4.305 2.119 4.305 6.439v468.03c0 3.843-3.127 6.97-6.97 6.97h-468.031c-4.321 0-6.021-3.295-6.439-4.305s-1.546-4.543 1.513-7.602l23.275-23.275 16.914 16.914c2.345 2.163 6.713 3.401 10.606 0 2.929-2.93 2.929-7.678 0-10.607l-16.914-16.914 40.517-40.517 16.915 16.914c2.345 2.163 6.713 3.401 10.606 0 2.929-2.93 2.929-7.678 0-10.607l-16.914-16.914 42.933-42.933 16.915 16.914c2.345 2.163 6.713 3.401 10.606 0 2.929-2.93 2.929-7.678 0-10.607l-16.914-16.914 12.5-12.5c2.929-2.93 2.929-7.678 0-10.607-2.929-2.928-7.678-2.928-10.606 0l-151.046 151.046c-6.405 6.405-8.23 15.582-4.764 23.949 3.465 8.367 11.243 13.564 20.297 13.564h468.03c12.114 0 21.97-9.855 21.97-21.97v-468.029c0-9.054-5.197-16.831-13.563-20.297zm-207.434 291.387h-239.894c-4.256 0-5.93-3.243-6.342-4.237s-1.521-4.472 1.488-7.481l16.548-16.547 4.361 4.361c2.345 2.163 6.713 3.401 10.606-.001 2.929-2.929 2.929-7.678 0-10.606l-4.361-4.36 27.903-27.903 4.361 4.361c2.345 2.163 6.713 3.401 10.606 0 2.929-2.93 2.929-7.678 0-10.607l-4.36-4.36 27.903-27.903 4.361 4.361c2.345 2.163 6.713 3.401 10.606 0 2.929-2.93 2.929-7.678 0-10.607l-4.36-4.36 27.903-27.903 4.361 4.361c2.345 2.163 6.713 3.401 10.606-.001 2.929-2.929 2.929-7.678 0-10.606l-4.361-4.36 29.723-29.723 4.361 4.361c2.345 2.163 6.713 3.401 10.606 0 2.929-2.93 2.929-7.678 0-10.607l-4.36-4.36 27.903-27.903 4.36 4.361c2.346 2.163 6.712 3.401 10.607 0 2.929-2.93 2.929-7.678 0-10.607l-4.36-4.36 18.37-18.37c1.592-1.592 3.313-2.032 4.73-2.032 2.948.28 5.854 1.031 6.988 6.886v153.824.005 86.065c.002 3.779-3.078 6.858-6.863 6.858z"/><path d="m426.706 368.549c4.143 0 7.5-3.357 7.5-7.5v-139.687c0-5.546-3.311-10.5-8.435-12.623-5.124-2.122-10.969-.958-14.891 2.962l-199.298 199.299c-3.922 3.922-5.084 9.767-2.962 14.891s7.077 8.435 12.623 8.435h199.3c7.534 0 13.663-6.129 13.663-13.663v-24.153c0-4.143-3.357-7.5-7.5-7.5s-7.5 3.357-7.5 7.5v22.816h-194.736l194.736-194.736v136.459c0 4.142 3.357 7.5 7.5 7.5z"/><path d="m230.773 194.792c-17.518 0-31.77 14.252-31.77 31.77s14.252 31.769 31.77 31.769 31.769-14.251 31.769-31.769-14.252-31.77-31.769-31.77zm0 48.538c-9.247 0-16.77-7.522-16.77-16.769s7.523-16.77 16.77-16.77 16.769 7.522 16.769 16.77c0 9.246-7.523 16.769-16.769 16.769z"/></g></g><g transform="matrix(0.1171875 0 0 0.1171875 9 272)" id="L1_6"><path d="M185.429,291.419H45.173c-19.414,0-35.153,15.739-35.153,35.153v140.256  c0,19.414,15.739,35.153,35.153,35.153h140.256c19.414,0,35.153-15.739,35.153-35.153V326.572  C220.581,307.158,204.844,291.419,185.429,291.419z" fill="#f95428"/><path d="M129.471,396.7l35.984-35.984c3.913-3.913,3.913-10.257,0-14.169c-3.914-3.913-10.257-3.913-14.17,0l-35.982,35.982  L79.32,346.547c-3.914-3.913-10.257-3.913-14.17,0c-3.913,3.913-3.913,10.257,0,14.169l35.984,35.984l-35.984,35.984  c-3.913,3.913-3.913,10.257,0,14.169c1.957,1.956,4.522,2.935,7.086,2.935s5.129-0.978,7.086-2.935l35.982-35.982l35.982,35.982  c1.957,1.956,4.522,2.935,7.086,2.935s5.129-0.978,7.086-2.935c3.913-3.913,3.913-10.257,0-14.169L129.471,396.7z"/><path d="M326.573,220.581h140.256c19.414,0,35.153-15.739,35.153-35.153V45.172  c0-19.414-15.739-35.153-35.153-35.153H326.573c-19.414,0-35.153,15.739-35.153,35.153v140.256  C291.42,204.843,307.159,220.581,326.573,220.581z" fill="#2ba5f7"/><path d="M457.608,105.281H406.72V54.393c0-5.533-4.485-10.02-10.02-10.02s-10.02,4.486-10.02,10.02v50.888h-50.889  c-5.535,0-10.02,4.486-10.02,10.02s4.485,10.02,10.02,10.02h50.889v50.888c0,5.533,4.485,10.02,10.02,10.02s10.02-4.486,10.02-10.02  V125.32h50.888c5.535,0,10.02-4.486,10.02-10.02S463.142,105.281,457.608,105.281z"/><path d="M291.42,326.572v140.256c0,19.414,15.739,35.153,35.153,35.153h140.256  c19.414,0,35.153-15.739,35.153-35.153V326.572c0-19.414-15.739-35.153-35.153-35.153H326.573  C307.159,291.419,291.42,307.158,291.42,326.572z" fill="#9ad14b"/><path d="M457.608,406.719H335.792c-5.535,0-10.02-4.486-10.02-10.02s4.485-10.02,10.02-10.02h121.816  c5.535,0,10.02,4.486,10.02,10.02S463.142,406.719,457.608,406.719z"/><path d="M32.731,466.828V326.572c0-19.414,15.739-35.153,35.153-35.153H45.173  c-19.414,0-35.153,15.739-35.153,35.153v140.256c0,19.414,15.739,35.153,35.153,35.153h22.711  C48.47,501.98,32.731,486.242,32.731,466.828z" fill="#e54728"/><path d="M220.581,185.428V45.172c0-19.414-15.739-35.153-35.153-35.153H45.173  c-19.414,0-35.153,15.739-35.153,35.153v140.256c0,19.414,15.739,35.153,35.153,35.153h140.256  C204.844,220.581,220.581,204.843,220.581,185.428z" fill="#f7b239"/><path d="M32.731,185.428V45.172c0-19.414,15.739-35.153,35.153-35.153H45.173  c-19.414,0-35.153,15.739-35.153,35.153v140.256c0,19.414,15.739,35.153,35.153,35.153h22.711  C48.47,220.581,32.731,204.843,32.731,185.428z" fill="#e09b2d"/><path d="M314.131,185.428V45.172c0-19.414,15.739-35.153,35.153-35.153h-22.711  c-19.414,0-35.153,15.739-35.153,35.153v140.256c0,19.414,15.739,35.153,35.153,35.153h22.711  C329.87,220.581,314.131,204.843,314.131,185.428z" fill="#2197d8"/><path d="M314.131,466.828V326.572c0-19.414,15.739-35.153,35.153-35.153h-22.711  c-19.414,0-35.153,15.739-35.153,35.153v140.256c0,19.414,15.739,35.153,35.153,35.153h22.711  C329.87,501.98,314.131,486.242,314.131,466.828z" fill="#90bc42"/><path d="M176.208,125.32H54.394c-5.535,0-10.02-4.486-10.02-10.02s4.485-10.02,10.02-10.02h121.816c5.535,0,10.02,4.486,10.02,10.02  S181.743,125.32,176.208,125.32z"/><path d="M115.304,174.412c-2.644,0-5.224-1.069-7.094-2.939c-1.858-1.857-2.926-4.435-2.926-7.081c0-2.632,1.069-5.224,2.926-7.081  c1.869-1.87,4.449-2.939,7.094-2.939c2.632,0,5.21,1.069,7.081,2.939c1.87,1.857,2.939,4.449,2.939,7.081  c0,2.645-1.069,5.224-2.939,7.081C120.527,173.343,117.934,174.412,115.304,174.412z"/><path d="M115.304,76.22c-2.644,0-5.224-1.069-7.094-2.926c-1.858-1.87-2.926-4.449-2.926-7.094c0-2.632,1.069-5.21,2.926-7.081  c1.869-1.857,4.449-2.926,7.094-2.926c2.632,0,5.224,1.069,7.081,2.926c1.87,1.87,2.939,4.449,2.939,7.081  c0,2.645-1.069,5.224-2.939,7.094C120.527,75.151,117.934,76.22,115.304,76.22z"/><path d="M185.43,512H45.173c-24.907,0-45.172-20.264-45.172-45.172V326.572c0-24.909,20.265-45.172,45.172-45.172H185.43  c24.909,0,45.172,20.264,45.172,45.172v140.256C230.601,491.736,210.337,512,185.43,512z M45.173,301.439  c-13.859,0-25.133,11.274-25.133,25.133v140.256c0,13.859,11.274,25.133,25.133,25.133H185.43c13.858,0,25.133-11.274,25.133-25.133  V326.572c0-13.859-11.274-25.133-25.133-25.133H45.173z"/><path d="M466.828,512H326.573c-24.909,0-45.172-20.264-45.172-45.172V326.572c0-24.909,20.265-45.172,45.172-45.172h140.254  c24.909,0,45.172,20.264,45.172,45.172v140.256C512.001,491.736,491.736,512,466.828,512z M326.573,301.439  c-13.859,0-25.133,11.274-25.133,25.133v140.256c0,13.859,11.274,25.133,25.133,25.133h140.254  c13.859,0,25.133-11.274,25.133-25.133V326.572c0-13.859-11.274-25.133-25.133-25.133H326.573z"/><path d="M466.828,230.6H326.573c-24.909,0-45.172-20.264-45.172-45.172V45.172C281.4,20.264,301.665,0,326.573,0h140.254  c24.909,0,45.172,20.264,45.172,45.172v140.256C512.001,210.337,491.736,230.6,466.828,230.6z M326.573,20.039  c-13.859,0-25.133,11.274-25.133,25.133v140.256c0,13.859,11.274,25.133,25.133,25.133h140.254  c13.859,0,25.133-11.274,25.133-25.133V45.172c0-13.859-11.274-25.133-25.133-25.133H326.573z"/><path d="M185.43,230.6H45.173c-24.907,0-45.172-20.264-45.172-45.172V45.172C0.001,20.264,20.266,0,45.173,0H185.43  c24.909,0,45.172,20.264,45.172,45.172v140.256C230.601,210.337,210.337,230.6,185.43,230.6z M45.173,20.039  c-13.859,0-25.133,11.274-25.133,25.133v140.256c0,13.859,11.274,25.133,25.133,25.133H185.43c13.858,0,25.133-11.274,25.133-25.133  V45.172c-0.001-13.859-11.275-25.133-25.133-25.133H45.173z"/></g><g transform="matrix(0.1171875 0 0 0.1171875 270 54)" id="L1_7"><path d="M297.242,92.552 214.57,92.552 227.631,8.565 284.182,8.565z" fill="#2ba5f7"/><path d="M227.631,8.565 214.57,92.552 233.357,92.552 246.418,8.565z" fill="#2197d8"/><circle cx="255" cy="193" r="63" fill="#f7b239"/><path d="M209.633,193.673c0-32.115,23.877-58.636,54.845-62.823c-2.804-0.379-5.662-0.592-8.57-0.592  c-35.023,0-63.415,28.392-63.415,63.415s28.392,63.415,63.415,63.415c2.908,0,5.766-0.214,8.57-0.593  C233.51,252.309,209.633,225.788,209.633,193.673z" fill="#e09b2d"/><g><path d="M232.094,252.442 130.415,503.43 101.652,460.339 198.645,220.917" fill="#cccccc"/><path d="M313.35,220.917 410.345,460.339 381.58,503.43 279.902,252.442" fill="#cccccc"/></g><circle cx="255" cy="193" r="23" fill="#f2f2f2"/><path d="M255.907,225.936c-17.79,0-32.263-14.474-32.263-32.263s14.473-32.263,32.263-32.263s32.263,14.474,32.263,32.263  S273.698,225.936,255.907,225.936z M255.907,178.549c-8.339,0-15.123,6.785-15.123,15.123c0,8.338,6.785,15.123,15.123,15.123  c8.338,0,15.123-6.785,15.123-15.123C271.031,185.334,264.247,178.549,255.907,178.549z"/><g><path d="M403.202,471.038l-7.816,11.712l-99.424-245.434l17.391-16.397l92.168,227.505   C408.538,455.874,407.67,464.342,403.202,471.038z" fill="#e6e6e6"/><path d="M122.599,491.718l7.816,11.712l99.424-245.434l-17.391-16.397L120.28,469.104   C117.263,476.554,118.131,485.022,122.599,491.718z" fill="#e6e6e6"/></g><path d="M426.96,333.631c0-4.733-3.836-8.57-8.57-8.57h-53.603l-42.228-104.239c3.428-8.384,5.333-17.547,5.333-27.15  c0-36.792-27.75-67.204-63.415-71.457v-21.094h32.763c2.502,0,4.88-1.095,6.509-2.995c1.628-1.9,2.344-4.418,1.96-6.891  L292.656,7.254C292.007,3.079,288.412,0,284.187,0h-56.56c-4.224,0-7.819,3.079-8.468,7.254l-13.052,83.982  c-0.384,2.474,0.331,4.991,1.96,6.891c1.628,1.901,4.006,2.995,6.509,2.995h32.761v21.094  c-35.665,4.253-63.415,34.666-63.415,71.457c0,9.689,1.936,18.932,5.422,27.377l-42.137,104.011H93.61  c-4.734,0-8.57,3.837-8.57,8.57c0,4.733,3.836,8.57,8.57,8.57h46.655l-46.556,114.92c-1.066,2.629-0.76,5.616,0.815,7.976  l28.764,43.091c1.6,2.396,4.283,3.812,7.126,3.812c0.29,0,0.582-0.015,0.874-0.045c3.158-0.322,5.88-2.365,7.071-5.308  l66.62-164.447h42.449v16.283c0,4.733,3.836,8.57,8.57,8.57c4.734,0,8.57-3.837,8.57-8.57v-16.283h42.45l66.62,164.447  c1.192,2.942,3.914,4.985,7.071,5.308c0.293,0.03,0.584,0.045,0.873,0.045c2.844,0,5.527-1.416,7.127-3.812l28.763-43.091  c1.575-2.36,1.881-5.347,0.815-7.976l-46.556-114.92h46.66C423.124,342.201,426.96,338.364,426.96,333.631z M224.581,83.982  l10.388-66.842h41.877l10.389,66.842H224.581z M255.907,138.828c30.242,0,54.845,24.603,54.845,54.845s-24.603,54.845-54.845,54.845  s-54.845-24.603-54.845-54.845S225.666,138.828,255.907,138.828z M128.554,485.203l-17.257-25.851l49.575-122.373  c0.006-0.014,0.01-0.026,0.016-0.04l39.499-97.498c5.752,6.966,12.793,12.825,20.746,17.233l-29.816,73.598  c-0.009,0.022-0.017,0.043-0.026,0.065L128.554,485.203z M264.568,325.061V308.78c0-4.733-3.836-8.57-8.57-8.57  c-4.734,0-8.57,3.837-8.57,8.57v16.281h-35.506l25.092-61.937c6.025,1.641,12.356,2.533,18.894,2.533  c6.598,0,12.983-0.91,19.057-2.58l25.11,61.983h-35.507V325.061z M383.443,485.203L320.74,330.425  c-0.026-0.066-0.051-0.133-0.08-0.198l-29.832-73.638c7.948-4.429,14.979-10.313,20.719-17.3l89.151,220.063L383.443,485.203z"/></g><g transform="matrix(0.1171875 0 0 0.1171875 137 149)" id="L1_8"><path d="M93.055,511.995c-5.032,0-9.111-4.079-9.111-9.111v-74.83H9.115c-5.032,0-9.111-4.079-9.111-9.111  c0-5.032,4.079-9.111,9.111-9.111h83.94c5.032,0,9.111,4.079,9.111,9.111v83.94C102.166,507.916,98.087,511.995,93.055,511.995z" fill="#f95428"/><g><path d="M379.874,502.884h-18.222c0-37.729,14.694-73.193,41.374-99.86c1.708-1.708,4.025-2.666,6.441-2.666   l0.006,9.117l6.435,6.438C392.67,439.137,379.874,470.023,379.874,502.884z" fill="#f7b239"/><path d="M9.115,150.346v-18.222c32.856,0,63.749-12.798,86.986-36.035l12.884,12.884   C82.305,135.654,46.838,150.346,9.115,150.346z" fill="#f7b239"/></g><path d="M502.888,512H9.111C4.079,512,0,507.92,0,502.889V9.11C0,5.425,2.22,2.104,5.625,0.693c3.405-1.409,7.324-0.63,9.928,1.975  l493.779,493.777c2.606,2.606,3.384,6.525,1.974,9.928C509.896,509.779,506.574,512,502.888,512z M18.222,493.778h462.672  L18.222,31.105V493.778z"/></g><g transform="matrix(0.1171875 0 0 0.1171875 174 68)" id="L1_9"><path d="M189.297,440.988H170.61c0-43.082-16.777-83.577-47.24-114.026l13.21-13.217  C170.575,347.723,189.297,392.912,189.297,440.988z" fill="#2197d8"/><path d="M502.657,450.336H9.344c-3.78,0-7.186-2.276-8.632-5.768c-1.446-3.492-0.647-7.51,2.026-10.182L372.722,64.4  c3.649-3.649,9.565-3.649,13.213,0c3.649,3.649,3.649,9.565,0,13.213L31.901,431.649h470.755c5.16,0,9.344,4.183,9.344,9.344  C512,446.153,507.817,450.336,502.657,450.336z"/><g><path d="M298.593,299.601c-5.16,0-9.344,4.183-9.344,9.344v26.161h-32.082l20.434-64.445   c1.56-4.918-1.164-10.171-6.083-11.73c-4.921-1.557-10.171,1.164-11.73,6.083l-24.292,76.613c-0.901,2.839-0.392,5.939,1.368,8.343   c1.759,2.403,4.56,3.825,7.54,3.825h44.846v42.978c0,5.16,4.183,9.344,9.344,9.344c5.16,0,9.344-4.183,9.344-9.344v-87.825   C307.936,303.783,303.753,299.601,298.593,299.601z" fill="#f95428"/><path d="M367.894,406.112h-20.332c-5.16,0-9.344-4.183-9.344-9.344c0-5.16,4.183-9.344,9.344-9.344h20.332   c10.871,0,19.716-8.844,19.716-19.716c0-10.872-8.845-19.716-19.716-19.716h-20.332c-5.16,0-9.344-4.183-9.344-9.344v-53.535   c0-5.16,4.183-9.344,9.344-9.344h46.03c5.16,0,9.344,4.183,9.344,9.344c0,5.16-4.183,9.344-9.344,9.344h-36.686v34.848h10.988   c21.176,0,38.403,17.228,38.403,38.403C406.298,388.883,389.069,406.112,367.894,406.112z" fill="#f95428"/><path d="M453.688,288.39c-19.062,0-34.57-15.508-34.57-34.57c0-19.062,15.508-34.57,34.57-34.57   s34.57,15.508,34.57,34.57S472.749,288.39,453.688,288.39z M453.688,237.937c-8.758,0-15.883,7.125-15.883,15.883   c0,8.758,7.125,15.883,15.883,15.883s15.883-7.125,15.883-15.883C469.571,245.062,462.445,237.937,453.688,237.937z" fill="#f95428"/></g></g><g transform="matrix(0.1171872690320015 0 0 0.1171872690320015 12.999998092651367 42.000003814697266)" id="L1_10"><g><path d="M152.629,10.58 10.58,152.331 10.58,501.422 152.629,359.67z" fill="#f95428"/><path d="M503.834,10.58 361.786,152.331 361.786,501.422 503.834,359.67z" fill="#f95428"/><rect x="12px" y="152px" width="348px" height="348px" fill="#f95428"/></g><rect x="152px" y="10px" width="348px" height="348px" fill="#e54728"/><g><path d="M152.628,55.011c-5.844,0-10.579-4.737-10.579-10.579V10.58c0-5.842,4.735-10.579,10.579-10.579   s10.579,4.737,10.579,10.579v33.853C163.207,50.275,158.472,55.011,152.628,55.011z" fill="#666666"/><path d="M152.628,285.235c-5.844,0-10.579-4.737-10.579-10.579v-64.248c0-5.842,4.735-10.579,10.579-10.579   s10.579,4.737,10.579,10.579v64.248C163.207,280.498,158.472,285.235,152.628,285.235z M152.628,170.122   c-5.844,0-10.579-4.737-10.579-10.579V95.296c0-5.842,4.735-10.579,10.579-10.579s10.579,4.737,10.579,10.579v64.248   C163.207,165.386,158.472,170.122,152.628,170.122z" fill="#666666"/><path d="M186.481,369.951h-33.853c-5.844,0-10.579-4.737-10.579-10.579v-33.853   c0-5.842,4.735-10.579,10.579-10.579s10.579,4.737,10.579,10.579v23.274h23.274c5.844,0,10.579,4.737,10.579,10.579   S192.325,369.951,186.481,369.951z" fill="#666666"/><path d="M416.705,369.951h-64.25c-5.844,0-10.579-4.737-10.579-10.579s4.735-10.579,10.579-10.579h64.25   c5.844,0,10.579,4.737,10.579,10.579S422.549,369.951,416.705,369.951z M301.593,369.951h-64.248   c-5.844,0-10.579-4.737-10.579-10.579s4.735-10.579,10.579-10.579h64.248c5.844,0,10.579,4.737,10.579,10.579   S307.435,369.951,301.593,369.951z" fill="#666666"/><path d="M501.422,369.951h-33.853c-5.844,0-10.579-4.737-10.579-10.579s4.735-10.579,10.579-10.579h33.853   c5.844,0,10.579,4.737,10.579,10.579S507.264,369.951,501.422,369.951z" fill="#666666"/><path d="M10.58,512.001c-2.707,0-5.415-1.033-7.481-3.099c-4.131-4.131-4.131-10.83,0-14.96l23.938-23.938   c4.133-4.131,10.83-4.131,14.962,0c4.131,4.131,4.131,10.83,0,14.96L18.06,508.902C15.995,510.967,13.287,512.001,10.58,512.001z" fill="#666666"/><path d="M82.907,439.674c-2.707,0-5.415-1.033-7.481-3.099c-4.131-4.131-4.131-10.83,0-14.96l23.938-23.938   c4.133-4.131,10.83-4.131,14.962,0c4.131,4.131,4.131,10.83,0,14.96l-23.938,23.938C88.322,438.64,85.613,439.674,82.907,439.674z" fill="#666666"/></g><path d="M501.422,0.001H152.628c-2.806,0-5.495,1.114-7.481,3.099L3.1,145.147l0,0c-1.914,1.916-3.099,4.56-3.099,7.481v348.793  c0,5.842,4.735,10.579,10.579,10.579h348.791c2.921,0,5.566-1.185,7.481-3.099l0,0l142.049-142.049  c1.983-1.983,3.098-4.674,3.098-7.48V10.58C512.001,4.737,507.264,0.001,501.422,0.001z M157.01,21.159h318.871L354.99,142.05  H36.121L157.01,21.159z M348.794,490.841H21.159V163.208h327.633v327.633H348.794z M369.952,475.88V157.011L490.843,36.12v318.87  L369.952,475.88z"/></g><g transform="matrix(0.1171875 0 0 0.1171875 238 245)" id="L1_11"><path d="M503.202,247.202H264.798V8.798c0-4.859-3.939-8.798-8.798-8.798c-4.859,0-8.798,3.939-8.798,8.798v238.404H8.798  c-4.859,0-8.798,3.939-8.798,8.798c0,4.859,3.939,8.798,8.798,8.798h238.405v238.405c0,4.859,3.939,8.798,8.798,8.798  c4.859,0,8.798-3.939,8.798-8.798V264.797h238.404c4.859,0,8.798-3.939,8.798-8.798C512,251.141,508.061,247.202,503.202,247.202z"/><g><path d="M503.202,212.35h-85.249c-65.232,0-118.303-53.07-118.303-118.303V8.798   c0-4.859,3.939-8.798,8.798-8.798c4.859,0,8.798,3.939,8.798,8.798v85.249c0,55.53,45.178,100.708,100.708,100.708h85.249   c4.859,0,8.798,3.939,8.798,8.798C512,208.411,508.061,212.35,503.202,212.35z" fill="#b3b3b3"/><path d="M203.552,512c-4.859,0-8.798-3.939-8.798-8.798v-85.249c0-55.53-45.178-100.708-100.708-100.708   H8.798c-4.859,0-8.798-3.939-8.798-8.798c0-4.859,3.939-8.798,8.798-8.798h85.249c65.232,0,118.303,53.071,118.303,118.303v85.249   C212.35,508.061,208.411,512,203.552,512z" fill="#b3b3b3"/></g><path d="M491.301,327.257l18.122-18.122c3.436-3.436,3.436-9.006,0-12.441c-3.436-3.436-9.006-3.436-12.441,0  l-18.122,18.122l-18.122-18.122c-3.436-3.436-9.006-3.436-12.441,0c-3.436,3.436-3.436,9.006,0,12.441l18.122,18.122l-18.122,18.122  c-3.436,3.436-3.436,9.006,0,12.441c3.436,3.436,9.007,3.436,12.441,0l18.122-18.122l18.122,18.122  c1.717,1.717,3.97,2.577,6.221,2.577s4.503-0.859,6.221-2.577c3.436-3.436,3.436-9.007,0-12.441L491.301,327.257z" fill="#f95428"/><path d="M221.28,2.577c-3.436-3.436-9.006-3.436-12.441,0l-18.122,18.122L172.594,2.577  c-3.436-3.436-9.006-3.436-12.441,0c-3.436,3.436-3.436,9.006,0,12.441l21.767,21.767v22.486c0,4.859,3.939,8.798,8.798,8.798  s8.798-3.939,8.798-8.798V36.785l21.767-21.767C224.716,11.584,224.716,6.013,221.28,2.577z" fill="#9ad14b"/></g><g transform="matrix(0.1171872690320015 0 0 0.1171872690320015 258 -17.999998092651367)" id="L1_12"><path d="M333.518,452.084 179.724,452.084 192.93,413.957 204.876,379.46 308.378,379.46   320.324,413.957z" fill="#e6e6e6"/><path d="M333.518,461.163H179.724c-2.936,0-5.693-1.421-7.396-3.813c-1.703-2.392-2.144-5.461-1.183-8.236l25.152-72.624  c1.266-3.657,4.71-6.108,8.578-6.108h103.501c3.868,0,7.312,2.451,8.578,6.107l25.141,72.626c0.96,2.774,0.519,5.843-1.185,8.234  C339.208,459.742,336.454,461.163,333.518,461.163z M192.476,443.006h128.295l-18.856-54.468H211.34L192.476,443.006z"/><path d="M320.324,413.957 192.93,413.957 204.876,379.46 308.378,379.46z" fill="#cccccc"/><path d="M502.926,97.34v244.695c0,20.662-16.764,37.426-37.426,37.426H46.507  c-20.674,0-37.426-16.764-37.426-37.426V97.34c0-20.674,16.752-37.426,37.426-37.426H465.5  C486.162,59.914,502.926,76.666,502.926,97.34z" fill="#666666"/><path d="M36.921,342.036V97.34c0-20.675,16.752-37.427,37.426-37.427H46.507  c-20.674,0-37.426,16.752-37.426,37.427v244.695c0,20.66,16.752,37.426,37.426,37.426h27.839  C53.674,379.462,36.921,362.696,36.921,342.036z" fill="#565656"/><path d="M502.926,325.9v16.135c0,20.662-16.764,37.426-37.426,37.426H46.507  c-20.674,0-37.426-16.764-37.426-37.426V325.9H502.926z" fill="#e6e6e6"/><path d="M36.921,342.036v-16.135H9.082v16.135c0,20.66,16.752,37.426,37.426,37.426h27.839  C53.674,379.462,36.921,362.696,36.921,342.036z" fill="#cccccc"/><path d="M465.495,50.834H46.505C20.862,50.834,0,71.695,0,97.339v244.692c0,25.644,20.862,46.505,46.505,46.505h145.62  l-18.862,54.475h-32.712c-5.013,0-9.078,4.065-9.078,9.078s4.065,9.078,9.078,9.078h39.176h153.798H372.7  c5.013,0,9.078-4.065,9.078-9.078s-4.065-9.078-9.078-9.078h-32.711l-18.863-54.475h144.371c25.644,0,46.505-20.861,46.505-46.505  V97.339C512,71.695,491.139,50.834,465.495,50.834z M320.775,443.011H192.476l18.863-54.475h90.573L320.775,443.011z   M493.844,342.031c0,15.632-12.716,28.349-28.349,28.349h-157.12H204.876H46.505c-15.631,0-28.349-12.716-28.349-28.349v-7.055  h475.688V342.031z M493.844,316.82H18.156V97.339c0-15.632,12.718-28.349,28.349-28.349h418.99  c15.632,0,28.349,12.716,28.349,28.349L493.844,316.82L493.844,316.82z"/><rect x="346px" y="124px" width="75px" height="165px" fill="#2ba5f7"/><rect x="90px" y="203px" width="75px" height="87px" fill="#f7b239"/><rect x="218px" y="238px" width="75px" height="52px" fill="#f95428"/><path d="M165.223,299.332H90.179c-5.013,0-9.078-4.065-9.078-9.078v-87.149c0-5.013,4.065-9.078,9.078-9.078h75.045  c5.013,0,9.078,4.065,9.078,9.078v87.149C174.302,295.267,170.238,299.332,165.223,299.332z M99.257,281.176h56.889v-68.993H99.257  C99.257,212.183,99.257,281.176,99.257,281.176z"/><path d="M421.829,299.332h-75.045c-5.013,0-9.078-4.065-9.078-9.078V124.429c0-5.013,4.065-9.078,9.078-9.078h75.045  c5.013,0,9.078,4.065,9.078,9.078v165.825C430.907,295.267,426.843,299.332,421.829,299.332z M355.862,281.176h56.889V133.507  h-56.889V281.176z"/><path d="M293.526,299.332h-75.045c-5.013,0-9.078-4.065-9.078-9.078v-52.047c0-5.013,4.065-9.078,9.078-9.078h75.045  c5.013,0,9.078,4.065,9.078,9.078v52.047C302.604,295.267,298.541,299.332,293.526,299.332z M227.559,281.176h56.889v-33.891  h-56.889V281.176z"/></g><g transform="matrix(0.1171875 0 0 0.1171875 65 219)" id="L1_13"><path d="m436 0h-360c-8.284 0-15 6.716-15 15v422c0 41.355 33.645 75 75 75h240c41.355 0 75-33.645 75-75v-422c0-8.284-6.716-15-15-15z" fill="#000000"/><path d="m451 15v422c0 41.36-33.64 75-75 75h-120v-512h180c8.28 0 15 6.72 15 15z" fill="#28373b"/><path d="m91 30h330v92h-330z" fill="#97e4f9"/><path d="m256 30h165v92h-165z" fill="#0acefa"/><path d="m376 182h-240c-8.284 0-15 6.716-15 15v240c0 8.284 6.716 15 15 15h240c8.284 0 15-6.716 15-15v-240c0-8.284-6.716-15-15-15z" fill="#59717a"/><path d="m391 197v240c0 8.28-6.72 15-15 15h-120v-270h120c8.28 0 15 6.72 15 15z" fill="#000000"/><g fill="#ebf7ff"><path d="m211 272h30v30h-30z"/><path d="m211 212h30v30h-30z"/><path d="m151 272h30v30h-30z"/><path d="m151 332h30v30h-30z"/><path d="m211 332h30v30h-30z"/><path d="m211 392h30v30h-30z"/></g><path d="m271 392h30v30h-30z" fill="#c5dfea"/><path d="m271 332h30v30h-30z" fill="#c5dfea"/><path d="m271 272h30v30h-30z" fill="#c5dfea"/><path d="m331 272h30v30h-30z" fill="#0acefa"/><path d="m271 212h90v30h-90z" fill="#f9c301"/><path d="m151 212h30v30h-30z" fill="#ebf7ff"/><path d="m151 392h30v30h-30z" fill="#ebf7ff"/><path d="m331 332h30v90h-30z" fill="#fa4954"/></g></defs><g fi:class="KUsePattern" opacity="0.36"><pattern id="pattern_L1_0" width="350" height="350" patternUnits="userSpaceOnUse"><use xlink:href="#L1_0" x="-350" y="-350"/><use xlink:href="#L1_0" x="0" y="-350"/><use xlink:href="#L1_0" x="350" y="-350"/><use xlink:href="#L1_0" x="-350" y="0"/><use xlink:href="#L1_0" x="0" y="0"/><use xlink:href="#L1_0" x="350" y="0"/><use xlink:href="#L1_0" x="-350" y="350"/><use xlink:href="#L1_0" x="0" y="350"/><use xlink:href="#L1_0" x="350" y="350"/></pattern><rect x="0" y="0" width="100%" height="100%" fill="url(#pattern_L1_0)"/></g><g fi:class="KUsePattern" opacity="0.37"><pattern id="pattern_L1_1" width="350" height="350" patternUnits="userSpaceOnUse"><use xlink:href="#L1_1" x="-350" y="-350"/><use xlink:href="#L1_1" x="0" y="-350"/><use xlink:href="#L1_1" x="350" y="-350"/><use xlink:href="#L1_1" x="-350" y="0"/><use xlink:href="#L1_1" x="0" y="0"/><use xlink:href="#L1_1" x="350" y="0"/><use xlink:href="#L1_1" x="-350" y="350"/><use xlink:href="#L1_1" x="0" y="350"/><use xlink:href="#L1_1" x="350" y="350"/></pattern><rect x="0" y="0" width="100%" height="100%" fill="url(#pattern_L1_1)"/></g><g fi:class="KUsePattern" opacity="0.38"><pattern id="pattern_L1_2" width="350" height="350" patternUnits="userSpaceOnUse"><use xlink:href="#L1_2" x="-350" y="-350"/><use xlink:href="#L1_2" x="0" y="-350"/><use xlink:href="#L1_2" x="350" y="-350"/><use xlink:href="#L1_2" x="-350" y="0"/><use xlink:href="#L1_2" x="0" y="0"/><use xlink:href="#L1_2" x="350" y="0"/><use xlink:href="#L1_2" x="-350" y="350"/><use xlink:href="#L1_2" x="0" y="350"/><use xlink:href="#L1_2" x="350" y="350"/></pattern><rect x="0" y="0" width="100%" height="100%" fill="url(#pattern_L1_2)"/></g><g fi:class="KUsePattern" opacity="0.23"><pattern id="pattern_L1_3" width="350" height="350" patternUnits="userSpaceOnUse"><use xlink:href="#L1_3" x="-350" y="-350"/><use xlink:href="#L1_3" x="0" y="-350"/><use xlink:href="#L1_3" x="350" y="-350"/><use xlink:href="#L1_3" x="-350" y="0"/><use xlink:href="#L1_3" x="0" y="0"/><use xlink:href="#L1_3" x="350" y="0"/><use xlink:href="#L1_3" x="-350" y="350"/><use xlink:href="#L1_3" x="0" y="350"/><use xlink:href="#L1_3" x="350" y="350"/></pattern><rect x="0" y="0" width="100%" height="100%" fill="url(#pattern_L1_3)"/></g><g fi:class="KUsePattern" opacity="0.2"><pattern id="pattern_L1_4" width="350" height="350" patternUnits="userSpaceOnUse"><use xlink:href="#L1_4" x="-350" y="-350"/><use xlink:href="#L1_4" x="0" y="-350"/><use xlink:href="#L1_4" x="350" y="-350"/><use xlink:href="#L1_4" x="-350" y="0"/><use xlink:href="#L1_4" x="0" y="0"/><use xlink:href="#L1_4" x="350" y="0"/><use xlink:href="#L1_4" x="-350" y="350"/><use xlink:href="#L1_4" x="0" y="350"/><use xlink:href="#L1_4" x="350" y="350"/></pattern><rect x="0" y="0" width="100%" height="100%" fill="url(#pattern_L1_4)"/></g><g fi:class="KUsePattern" opacity="0.24"><pattern id="pattern_L1_6" width="350" height="350" patternUnits="userSpaceOnUse"><use xlink:href="#L1_6" x="-350" y="-350"/><use xlink:href="#L1_6" x="0" y="-350"/><use xlink:href="#L1_6" x="350" y="-350"/><use xlink:href="#L1_6" x="-350" y="0"/><use xlink:href="#L1_6" x="0" y="0"/><use xlink:href="#L1_6" x="350" y="0"/><use xlink:href="#L1_6" x="-350" y="350"/><use xlink:href="#L1_6" x="0" y="350"/><use xlink:href="#L1_6" x="350" y="350"/></pattern><rect x="0" y="0" width="100%" height="100%" fill="url(#pattern_L1_6)"/></g><g fi:class="KUsePattern" opacity="0.42"><pattern id="pattern_L1_7" width="350" height="350" patternUnits="userSpaceOnUse"><use xlink:href="#L1_7" x="-350" y="-350"/><use xlink:href="#L1_7" x="0" y="-350"/><use xlink:href="#L1_7" x="350" y="-350"/><use xlink:href="#L1_7" x="-350" y="0"/><use xlink:href="#L1_7" x="0" y="0"/><use xlink:href="#L1_7" x="350" y="0"/><use xlink:href="#L1_7" x="-350" y="350"/><use xlink:href="#L1_7" x="0" y="350"/><use xlink:href="#L1_7" x="350" y="350"/></pattern><rect x="0" y="0" width="100%" height="100%" fill="url(#pattern_L1_7)"/></g><g fi:class="KUsePattern" opacity="0.17"><pattern id="pattern_L1_8" width="350" height="350" patternUnits="userSpaceOnUse"><use xlink:href="#L1_8" x="-350" y="-350"/><use xlink:href="#L1_8" x="0" y="-350"/><use xlink:href="#L1_8" x="350" y="-350"/><use xlink:href="#L1_8" x="-350" y="0"/><use xlink:href="#L1_8" x="0" y="0"/><use xlink:href="#L1_8" x="350" y="0"/><use xlink:href="#L1_8" x="-350" y="350"/><use xlink:href="#L1_8" x="0" y="350"/><use xlink:href="#L1_8" x="350" y="350"/></pattern><rect x="0" y="0" width="100%" height="100%" fill="url(#pattern_L1_8)"/></g><g fi:class="KUsePattern" opacity="0.24"><pattern id="pattern_L1_9" width="350" height="350" patternUnits="userSpaceOnUse"><use xlink:href="#L1_9" x="-350" y="-350"/><use xlink:href="#L1_9" x="0" y="-350"/><use xlink:href="#L1_9" x="350" y="-350"/><use xlink:href="#L1_9" x="-350" y="0"/><use xlink:href="#L1_9" x="0" y="0"/><use xlink:href="#L1_9" x="350" y="0"/><use xlink:href="#L1_9" x="-350" y="350"/><use xlink:href="#L1_9" x="0" y="350"/><use xlink:href="#L1_9" x="350" y="350"/></pattern><rect x="0" y="0" width="100%" height="100%" fill="url(#pattern_L1_9)"/></g><g fi:class="KUsePattern" opacity="0.22"><pattern id="pattern_L1_10" width="350" height="350" patternUnits="userSpaceOnUse"><use xlink:href="#L1_10" x="-350" y="-350"/><use xlink:href="#L1_10" x="0" y="-350"/><use xlink:href="#L1_10" x="350" y="-350"/><use xlink:href="#L1_10" x="-350" y="0"/><use xlink:href="#L1_10" x="0" y="0"/><use xlink:href="#L1_10" x="350" y="0"/><use xlink:href="#L1_10" x="-350" y="350"/><use xlink:href="#L1_10" x="0" y="350"/><use xlink:href="#L1_10" x="350" y="350"/></pattern><rect x="0" y="0" width="100%" height="100%" fill="url(#pattern_L1_10)"/></g><g fi:class="KUsePattern" opacity="0.24"><pattern id="pattern_L1_11" width="350" height="350" patternUnits="userSpaceOnUse"><use xlink:href="#L1_11" x="-350" y="-350"/><use xlink:href="#L1_11" x="0" y="-350"/><use xlink:href="#L1_11" x="350" y="-350"/><use xlink:href="#L1_11" x="-350" y="0"/><use xlink:href="#L1_11" x="0" y="0"/><use xlink:href="#L1_11" x="350" y="0"/><use xlink:href="#L1_11" x="-350" y="350"/><use xlink:href="#L1_11" x="0" y="350"/><use xlink:href="#L1_11" x="350" y="350"/></pattern><rect x="0" y="0" width="100%" height="100%" fill="url(#pattern_L1_11)"/></g><g fi:class="KUsePattern" opacity="0.37"><pattern id="pattern_L1_12" width="350" height="350" patternUnits="userSpaceOnUse"><use xlink:href="#L1_12" x="-350" y="-350"/><use xlink:href="#L1_12" x="0" y="-350"/><use xlink:href="#L1_12" x="350" y="-350"/><use xlink:href="#L1_12" x="-350" y="0"/><use xlink:href="#L1_12" x="0" y="0"/><use xlink:href="#L1_12" x="350" y="0"/><use xlink:href="#L1_12" x="-350" y="350"/><use xlink:href="#L1_12" x="0" y="350"/><use xlink:href="#L1_12" x="350" y="350"/></pattern><rect x="0" y="0" width="100%" height="100%" fill="url(#pattern_L1_12)"/></g><g fi:class="KUsePattern" opacity="0.15"><pattern id="pattern_L1_13" width="350" height="350" patternUnits="userSpaceOnUse"><use xlink:href="#L1_13" x="-350" y="-350"/><use xlink:href="#L1_13" x="0" y="-350"/><use xlink:href="#L1_13" x="350" y="-350"/><use xlink:href="#L1_13" x="-350" y="0"/><use xlink:href="#L1_13" x="0" y="0"/><use xlink:href="#L1_13" x="350" y="0"/><use xlink:href="#L1_13" x="-350" y="350"/><use xlink:href="#L1_13" x="0" y="350"/><use xlink:href="#L1_13" x="350" y="350"/></pattern><rect x="0" y="0" width="100%" height="100%" fill="url(#pattern_L1_13)"/></g></svg>